<svg width="163" height="625" viewBox="0 0 163 625" fill="none" xmlns="http://www.w3.org/2000/svg">
<path d="M-5.4531e-06 500.081L-6.01445e-07 611.074L48.969 615.89L48.969 612.22C17.0127 604.194 5.28773 601.213 5.28773 565.438L5.28773 533.104L157.482 624.833L163 624.833L163 507.19L111.502 502.145L111.502 505.814C144.838 512.923 157.942 518.656 157.942 554.889L157.942 595.25L-5.4531e-06 500.081Z" fill="white"/>
<path d="M-7.54524e-06 452.218L157.942 507.027L157.942 522.162L163 522.162L163 479.279L157.942 479.279L157.942 499.918L110.353 484.094L110.353 436.166L157.942 420.342L157.942 441.44L163 441.44L163 380.669L157.942 380.669L157.942 392.135L-7.81589e-06 446.027L-7.54524e-06 452.218ZM105.295 482.489L37.4739 460.474L105.295 438L105.295 482.489Z" fill="white"/>
<path d="M-1.00671e-05 394.525L5.28772 394.525L5.28772 375.491L157.942 375.491L157.942 394.755L163 394.755L163 349.119L157.942 349.119L157.942 368.382L11.2652 368.382L163 270.69L163 265.187L5.28771 265.187L5.28771 246.841L-1.65226e-05 246.841L-1.4608e-05 290.642L5.28771 290.642L5.28771 272.296L111.502 272.296L-1.22724e-05 344.074L-1.00671e-05 394.525Z" fill="white"/>
<path d="M-1.59856e-05 259.126L5.28771 259.126L5.28771 240.092L157.942 240.092L157.942 259.355L163 259.355L163 213.719L157.942 213.719L157.942 232.983L11.2652 232.983L163 135.29L163 129.787L5.28771 129.787L5.28771 111.441L-2.24411e-05 111.441L-2.05265e-05 155.242L5.28771 155.242L5.28771 136.896L111.502 136.896L-1.81909e-05 208.674L-1.59856e-05 259.126Z" fill="white"/>
<path d="M-2.41848e-05 71.5491L157.942 126.358L157.942 141.493L163 141.493L163 98.6094L157.942 98.6094L157.942 119.249L110.353 103.425L110.353 55.4963L157.942 39.673L157.942 60.7708L163 60.7708L163 -6.81601e-05L157.942 -6.7939e-05L157.942 11.4661L-2.44555e-05 65.3573L-2.41848e-05 71.5491ZM105.295 101.82L37.4739 79.8047L105.295 57.331L105.295 101.82Z" fill="white"/>
</svg>
