<svg width="13" height="8" viewBox="0 0 13 8" fill="none" xmlns="http://www.w3.org/2000/svg">
<path d="M8.87891 0.359375C8.98828 0.222656 9.20703 0.222656 9.34375 0.359375L12.5156 3.53125C12.6523 3.66797 12.6523 3.85938 12.5156 3.99609L9.34375 7.16797C9.20703 7.30469 8.98828 7.30469 8.87891 7.16797L8.66016 6.97656C8.55078 6.83984 8.55078 6.64844 8.66016 6.51172L10.957 4.21484H0.703125C0.511719 4.21484 0.375 4.07812 0.375 3.88672V3.61328C0.375 3.44922 0.511719 3.28516 0.703125 3.28516H10.957L8.66016 1.01562C8.55078 0.878906 8.55078 0.6875 8.66016 0.550781L8.87891 0.359375Z" fill="white"/>
</svg>
