<svg xmlns="http://www.w3.org/2000/svg" width="60" height="60" viewBox="0 0 60 60" fill="none"><path d="M12.2977 52.8721C13.6292 52.8721 14.9608 52.2454 16.1358 51.0705C17.859 49.3473 19.1123 47.0757 20.5222 44.3342C21.7755 41.906 23.2637 39.3211 25.5352 36.3446C26.4752 36.9713 27.5718 37.4413 28.7467 37.6762C28.1984 41.3577 27.4151 44.1775 26.5535 46.8407C25.6136 49.8172 24.9086 52.2454 24.9086 54.6736C24.9086 58.0418 26.8668 60 30 60C33.1332 60 35.0914 58.0418 35.0914 54.6736C35.0914 52.2454 34.3864 49.8172 33.4465 46.8407C32.5849 44.1775 31.8799 41.3577 31.3316 37.6762C32.5065 37.5196 33.6031 37.0496 34.5431 36.3446C36.7363 39.3995 38.2245 41.906 39.4778 44.3342C40.8877 47.0757 42.141 49.3473 43.8642 51.0705C45.0392 52.2454 46.3708 52.8721 47.7024 52.8721C48.9556 52.8721 50.1306 52.3238 51.2272 51.2272C52.3238 50.1305 52.8721 48.9556 52.8721 47.7024C52.8721 46.3708 52.2454 45.0392 51.0705 43.8642C49.3473 42.141 47.0757 40.8877 44.3342 39.4778C41.906 38.2245 39.3995 36.7363 36.3447 34.5431C37.0496 33.6031 37.4413 32.5065 37.6762 31.3316C41.3577 31.8799 44.1775 32.5849 46.8407 33.4465C49.8172 34.3864 52.2454 35.0914 54.6736 35.0914C58.0418 35.0914 60 33.1332 60 30C60 26.8668 58.0418 24.9086 54.6736 24.9086C52.2454 24.9086 49.8172 25.6136 46.8407 26.5535C44.1775 27.4151 41.3577 28.1984 37.6762 28.7467C37.4413 27.4935 36.9713 26.4752 36.3447 25.5353C39.3212 23.2637 41.906 21.7755 44.3342 20.5222C47.0757 19.1123 49.3473 17.859 51.0705 16.1358C52.2454 14.9608 52.8721 13.6292 52.8721 12.2977C52.8721 11.0444 52.3238 9.86945 51.2272 8.77284C50.1306 7.67624 48.9556 7.12793 47.7024 7.12793C46.3708 7.12793 45.0392 7.75457 43.8642 8.9295C42.141 10.6527 40.8877 12.9243 39.4778 15.6658C38.2245 18.094 36.7363 20.6789 34.4648 23.6554C33.6031 23.0287 32.5065 22.5587 31.3316 22.3238C31.8799 18.6423 32.5849 15.8225 33.4465 13.1593C34.3864 10.1828 35.0914 7.75457 35.0914 5.32637C35.0914 1.95822 33.1332 0 30 0C26.8668 0 24.9086 1.95822 24.9086 5.32637C24.9086 7.75457 25.6136 10.1828 26.5535 13.1593C27.4151 15.8225 28.1984 18.6423 28.7467 22.4021C27.5718 22.5587 26.4752 23.0287 25.5352 23.7337C23.2637 20.6789 21.7755 18.094 20.5222 15.6658C19.1123 12.9243 17.859 10.6527 16.1358 8.9295C14.9608 7.75457 13.6292 7.12793 12.2977 7.12793C11.0444 7.12793 9.86945 7.67624 8.77285 8.77284C7.67624 9.86945 7.12794 11.0444 7.12794 12.2977C7.12794 13.6292 7.75457 14.9608 8.9295 16.1358C10.6527 17.859 12.9243 19.1123 15.6658 20.5222C18.094 21.7755 20.6789 23.2637 23.7337 25.5353C23.0287 26.4752 22.5587 27.5718 22.4021 28.7467C18.6423 28.1984 15.8225 27.4151 13.1593 26.5535C10.1828 25.6136 7.75457 24.9086 5.32637 24.9086C1.95822 24.9086 0 26.8668 0 30C0 33.1332 1.95822 35.0914 5.32637 35.0914C7.75457 35.0914 10.1828 34.3864 13.1593 33.4465C15.8225 32.5849 18.6423 31.8799 22.3238 31.3316C22.5587 32.5065 23.0287 33.6031 23.6554 34.4648C20.6789 36.7363 18.094 38.2245 15.6658 39.4778C12.9243 40.8877 10.6527 42.141 8.9295 43.8642C7.75457 45.0392 7.12794 46.3708 7.12794 47.7024C7.12794 48.9556 7.67624 50.1305 8.77285 51.2272C9.86945 52.3238 11.0444 52.8721 12.2977 52.8721Z" fill="white"></path></svg>