<svg xmlns="http://www.w3.org/2000/svg" width="198" height="198" viewBox="0 0 198 198" fill="none"><path d="M99 1.19476L120.141 47.0747L120.334 47.4947L120.768 47.3345L168.159 29.8413L150.665 77.232L150.505 77.6658L150.925 77.8593L196.805 99L150.925 120.141L150.505 120.334L150.665 120.768L168.159 168.159L120.768 150.665L120.334 150.505L120.141 150.925L99 196.805L77.8593 150.925L77.6658 150.505L77.232 150.665L29.8413 168.159L47.3345 120.768L47.4947 120.334L47.0747 120.141L1.19476 99L47.0747 77.8593L47.4947 77.6658L47.3345 77.232L29.8413 29.8413L77.232 47.3345L77.6658 47.4947L77.8593 47.0747L99 1.19476Z" fill="white" stroke="#111111"></path><path d="M119 74H84.3015L82.796 89.0212H83.943C86.4522 79.2186 87.3842 75.622 98.568 75.622H108.676L80 122.307V124H116.778L118.355 108.203H117.208C114.985 118.429 113.193 122.449 101.866 122.449H89.2482L119 74Z" fill="#111111"></path></svg>