<svg xmlns="http://www.w3.org/2000/svg" width="465" height="564" viewBox="0 0 465 564" fill="none"><path d="M686.301 463.209C678.407 476.882 662.171 484.977 639.392 487.803C616.623 490.627 587.417 488.172 553.753 480.845C486.43 466.194 401.395 432.086 314.617 381.985C227.839 331.884 155.784 275.295 109.434 224.318C86.2568 198.827 69.5271 174.761 60.5888 153.63C51.6465 132.49 50.5389 114.382 58.433 100.709C66.3271 87.036 82.563 78.9411 105.342 76.1152C128.111 73.2905 157.318 75.7459 190.982 83.0724C258.304 97.7243 343.339 131.832 430.117 181.933C516.895 232.034 588.951 288.623 635.301 339.6C658.478 365.091 675.207 389.156 684.146 410.287C693.088 431.428 694.195 449.536 686.301 463.209Z" stroke="white"></path><path d="M203 31L210.747 65.2968L240.477 46.5233L221.703 76.2529L256 84L221.703 91.7471L240.477 121.477L210.747 102.703L203 137L195.253 102.703L165.523 121.477L184.297 91.7471L150 84L184.297 76.2529L165.523 46.5233L195.253 65.2968L203 31Z" fill="white"></path></svg>