<svg xmlns="http://www.w3.org/2000/svg" width="745" height="512" viewBox="0 0 745 512" fill="none"><path d="M686.301 463.209C678.407 476.882 662.171 484.977 639.392 487.803C616.623 490.627 587.417 488.172 553.753 480.845C486.43 466.194 401.395 432.086 314.617 381.985C227.839 331.884 155.784 275.295 109.434 224.318C86.2568 198.827 69.5271 174.761 60.5888 153.63C51.6465 132.49 50.5389 114.382 58.433 100.709C66.3271 87.036 82.563 78.9411 105.342 76.1152C128.111 73.2905 157.318 75.7459 190.982 83.0724C258.304 97.7243 343.339 131.832 430.117 181.933C516.895 232.034 588.951 288.623 635.301 339.6C658.478 365.091 675.207 389.156 684.146 410.287C693.088 431.428 694.195 449.536 686.301 463.209Z" stroke="#111111"></path><path d="M88 24L95.7471 58.2968L125.477 39.5233L106.703 69.2529L141 77L106.703 84.7471L125.477 114.477L95.7471 95.7032L88 130L80.2529 95.7032L50.5233 114.477L69.2968 84.7471L35 77L69.2968 69.2529L50.5233 39.5233L80.2529 58.2968L88 24Z" fill="#111111"></path></svg>